<?xml version="1.0" encoding="UTF-8"?>
<svg id="Layer_2" data-name="Layer 2" xmlns="http://www.w3.org/2000/svg" xmlns:xlink="http://www.w3.org/1999/xlink" viewBox="0 0 493.04 157.49">
  <defs>
    <style>
      .cls-1 {
        fill: url(#linear-gradient);
      }

      .cls-2 {
        fill: #191818;
      }

      .cls-3 {
        fill: #4f4f4f;
      }
    </style>
    <linearGradient id="linear-gradient" x1="235.14" y1="189.41" x2="425.89" y2="-1.34" gradientUnits="userSpaceOnUse">
      <stop offset="0" stop-color="#fff"/>
      <stop offset="1" stop-color="#000"/>
    </linearGradient>
  </defs>
  <g id="Layer_1-2" data-name="Layer 1">
    <g>
      <g>
        <path class="cls-2" d="M66.82,60.87l-7.38,52.5c-3.16,22.46-15.08,32.09-34.86,32.09S-2.46,135.59,.63,113.59l7.49-53.3c3.07-21.85,16.42-31.39,33.85-31.39s28.03,9.38,24.85,31.97Zm-36.42-2.45l-8.13,57.84c-.98,6.99,.9,10.63,5.77,10.63s7.84-3.3,8.88-10.74l8.14-57.9c.99-7.07-.45-10.68-5.93-10.68-4.63,0-7.67,3.35-8.73,10.86Z"/>
        <path class="cls-2" d="M66.86,143.76l15.9-113.17h24.08c1.65,13.81,5.79,65.07,5.99,70.03h.53c.91-15.06,3.03-35.64,5.25-51.44l2.61-18.59h20.21l-15.9,113.17h-24.3c-.83-10.77-4.98-69.32-5.2-72.94h-.59c-1.02,13.32-3.52,35.83-6.02,53.62l-2.72,19.33h-19.84Z"/>
        <path class="cls-2" d="M191.14,93.78h-23.33l-4.34,30.85h27.35l-5.3,19.13h-46.53l15.9-113.17h46.36l.14,19.25h-27.41l-3.49,24.8h23.33l-2.69,19.13Z"/>
      </g>
      <g>
        <path class="cls-1" d="M467.49,44.86l-14.42,102.6c-.47,3.33-3.55,6.03-6.88,6.03H207.15c-3.33,0-5.65-2.7-5.19-6.03l16.49-117.34c.47-3.33,3.55-6.03,6.88-6.03h220.59l.56-4H225.34c-5.33,0-10.1,4.16-10.84,9.48l-16.49,117.34c-.39,2.75,.39,5.47,2.13,7.47,1.73,1.98,4.28,3.12,7.02,3.12h239.04c5.33,0,10.1-4.16,10.84-9.48l14.57-103.65c-.85,.31-1.76,.49-2.69,.49h-1.41Z"/>
        <path class="cls-2" d="M218.45,30.12l-16.49,117.34c-.47,3.33,1.85,6.03,5.19,6.03h239.04c3.33,0,6.41-2.7,6.88-6.03l14.42-102.6h-16.61c-2.02,0-3.91-.84-5.19-2.31-1.29-1.48-1.86-3.5-1.58-5.53l1.82-12.93H225.34c-3.33,0-6.41,2.7-6.88,6.03Zm203.9,20.24c12.42-.06,17.63,6.68,15.72,20.31l-.66,4.7c-1.89,13.48-7.98,21.62-22.17,21.64h-4.21s-4.24,30.21-4.24,30.21h-14.35s10.79-76.76,10.79-76.76l19.13-.09Zm-80.38,.37l20.42-.09c-.12,14.54-.63,33.64-1.25,44.01h.31c2.7-11.09,7.42-27.18,12.07-44.06l20.43-.09-10.78,76.7h-13.75s3.43-24.43,3.43-24.43c1.67-11.86,4.14-28.68,5.65-38.08h-.38c-3.7,15.34-11.35,46.37-15.63,62.49h-12.08c.72-16.74,1.96-48.29,2.42-62.59h-.46c-1.08,8.98-3.04,25.56-4.89,38.75l-3.35,23.83h-12.89s10.74-76.43,10.74-76.43Zm-20.07,.26l.32,75.6h-15.12l1.44-58.27h-.31s-14.49,58.27-14.49,58.27h-14.82l21.31-75.6h21.68Zm-76.58,.15l18.22-.08c12.26-.06,17.54,5.52,15.67,18.83l-.38,2.74c-1.52,10.85-6.15,14.08-9.5,15.63,4.23,2.28,5.88,5.76,4.39,16.38-1.03,7.35-2.7,18.46-2.65,22.47h-13.61c-.43-3.45,1.03-13.35,2.39-23.06,1.2-8.56,.47-10.01-4.89-10.01h-1.66s-4.64,33.04-4.64,33.04h-14.01s10.67-75.94,10.67-75.94Z"/>
        <path class="cls-2" d="M264.51,73.88l.52-3.67c.72-5.1,.09-7.64-5.08-7.62h-2.19s-2.8,19.94-2.8,19.94h1.74c4.69-.01,6.83-1.56,7.82-8.64Z"/>
        <path class="cls-2" d="M422.98,75.47l.75-5.31c.7-4.97,.02-8.17-4.77-8.15h-3.01s-3.23,23.02-3.23,23.02h2.33c5.45-.02,7.04-3.16,7.94-9.56Z"/>
      </g>
      <g>
        <path class="cls-2" d="M454.74,17.37c-1.24,0-2.52,1.14-2.7,2.38l-2.53,18.02c-.07,.47,.04,.9,.29,1.19,.25,.29,.62,.44,1.07,.44h18.02c1.24,0,2.52-1.14,2.7-2.38l2.53-18.02c.07-.47-.04-.9-.29-1.19-.25-.29-.62-.44-1.07-.44h-18.02Z"/>
        <path class="cls-2" d="M475.53,12.6h-8.41c-1.15,0-1.96-.94-1.8-2.09l1.18-8.41c.16-1.15,1.23-2.09,2.38-2.09h8.41c1.15,0,1.96,.94,1.8,2.09l-1.18,8.41c-.16,1.15-1.23,2.09-2.38,2.09Z"/>
        <path class="cls-3" d="M485.79,22.47h-6.07c-.51,0-.86-.41-.79-.92l.85-6.07c.07-.51,.54-.92,1.05-.92h6.07c.51,0,.86,.41,.79,.92l-.85,6.07c-.07,.51-.54,.92-1.05,.92Z"/>
        <path class="cls-3" d="M448.88,16.82h-4.76c-.4,0-.68-.33-.62-.72l.67-4.76c.06-.4,.43-.72,.82-.72h4.76c.4,0,.68,.33,.62,.72l-.67,4.76c-.06,.4-.43,.72-.82,.72Z"/>
        <path class="cls-2" d="M488.6,44.55h-11.18c-1.37,0-2.34-1.12-2.14-2.5l1.57-11.18c.19-1.37,1.47-2.5,2.85-2.5h11.18c1.37,0,2.34,1.12,2.14,2.5l-1.57,11.18c-.19,1.37-1.47,2.5-2.85,2.5Z"/>
      </g>
    </g>
  </g>
</svg>